<?xml version="1.0" encoding="UTF-8"?>
<svg id="Layer_1" xmlns="http://www.w3.org/2000/svg" version="1.1" viewBox="0 0 1080 1080">
  <!-- Generator: Adobe Illustrator 29.6.0, SVG Export Plug-In . SVG Version: 2.1.1 Build 207)  -->
  <defs>
    <style>
      .st0 {
        stroke: #bf964b;
      }

      .st0, .st1, .st2, .st3, .st4 {
        stroke-miterlimit: 10;
      }

      .st0, .st5, .st4 {
        fill: #cca050;
        stroke-width: 10px;
      }

      .st1, .st2 {
        stroke-width: 20px;
      }

      .st1, .st2, .st5, .st4 {
        stroke: #b38c46;
      }

      .st1, .st3 {
        fill: none;
      }

      .st2 {
        fill: #e8b75b;
      }

      .st3 {
        stroke: gray;
        stroke-width: 30px;
      }

      .st5 {
        stroke-linejoin: round;
      }

      .st6 {
        fill: gray;
      }
    </style>
  </defs>
  <path class="st6" d="M740.64,193.19c4.23,0,8.45.09,12.64.28,5.9.26,10.72,4.79,11.32,10.66l5.17,51.03c.53,5.26,4.5,9.51,9.7,10.48,18,3.36,35.2,9.02,51.27,16.65,1.64.78,3.4,1.16,5.13,1.16,3.28,0,6.49-1.35,8.78-3.92l34.23-38.3c2.32-2.6,5.56-3.95,8.84-3.95,2.27,0,4.57.65,6.59,1.98,7.04,4.65,13.86,9.61,20.43,14.87,4.61,3.68,5.85,10.17,2.88,15.27l-25.83,44.36c-2.66,4.57-1.95,10.33,1.68,14.17,12.32,13.05,23,27.68,31.68,43.55,2.13,3.89,6.16,6.24,10.45,6.24.83,0,1.67-.09,2.5-.27l50.2-10.86c.84-.18,1.68-.27,2.51-.27,4.86,0,9.35,3.01,11.12,7.73,2.95,7.85,5.56,15.87,7.81,24.04,1.56,5.69-1.24,11.67-6.64,14.05l-47.03,20.73c-4.82,2.13-7.62,7.18-6.95,12.41,1.13,8.83,1.71,17.82,1.71,26.96s-.58,18.13-1.71,26.96c-.67,5.23,2.13,10.29,6.95,12.41l47.03,20.73c5.4,2.38,8.21,8.36,6.64,14.05-2.24,8.17-4.85,16.19-7.81,24.04-1.77,4.72-6.26,7.73-11.12,7.73-.83,0-1.67-.09-2.51-.27l-50.2-10.86c-.84-.18-1.67-.27-2.5-.27-4.29,0-8.33,2.35-10.45,6.24-8.68,15.87-19.36,30.5-31.68,43.55-3.63,3.85-4.35,9.6-1.68,14.17l25.83,44.37c2.97,5.1,1.73,11.59-2.88,15.27-6.58,5.26-13.39,10.22-20.43,14.87-2.02,1.33-4.31,1.98-6.59,1.98-3.28,0-6.52-1.35-8.84-3.95l-34.23-38.3c-2.29-2.56-5.5-3.92-8.78-3.92-1.74,0-3.49.38-5.13,1.16-16.07,7.64-33.27,13.29-51.27,16.65-5.2.97-9.16,5.21-9.7,10.48l-5.17,51.03c-.6,5.87-5.42,10.4-11.32,10.66-4.19.19-8.4.28-12.64.28s-8.45-.09-12.64-.28c-5.9-.26-10.72-4.79-11.32-10.66l-5.17-51.03c-.53-5.26-4.5-9.51-9.7-10.48-18-3.36-35.2-9.02-51.27-16.65-1.64-.78-3.4-1.16-5.13-1.16-3.28,0-6.49,1.35-8.78,3.92l-34.23,38.3c-2.32,2.6-5.56,3.95-8.84,3.95-2.27,0-4.57-.65-6.59-1.98-7.04-4.65-13.86-9.62-20.43-14.87-4.61-3.68-5.85-10.17-2.88-15.27l25.83-44.36c2.66-4.57,1.95-10.33-1.68-14.18-12.32-13.05-23-27.68-31.68-43.55-2.13-3.89-6.16-6.24-10.45-6.24-.83,0-1.67.09-2.5.27l-50.2,10.86c-.84.18-1.68.27-2.51.27-4.86,0-9.35-3.01-11.12-7.73-2.95-7.85-5.56-15.87-7.81-24.04-1.56-5.69,1.24-11.67,6.64-14.05l47.03-20.73c4.82-2.13,7.62-7.18,6.95-12.41-1.13-8.83-1.71-17.82-1.71-26.96s.58-18.13,1.71-26.96c.67-5.23-2.13-10.29-6.95-12.41l-47.03-20.73c-5.4-2.38-8.21-8.36-6.64-14.05,2.24-8.17,4.85-16.19,7.81-24.04,1.78-4.72,6.26-7.73,11.12-7.73.83,0,1.67.09,2.51.27l50.2,10.86c.84.18,1.67.27,2.5.27,4.29,0,8.33-2.35,10.45-6.24,8.68-15.87,19.36-30.5,31.68-43.55,3.63-3.85,4.35-9.6,1.68-14.18l-25.83-44.36c-2.97-5.1-1.73-11.59,2.88-15.27,6.57-5.26,13.39-10.22,20.43-14.87,2.02-1.33,4.31-1.98,6.59-1.98,3.28,0,6.52,1.35,8.84,3.95l34.23,38.3c2.29,2.56,5.5,3.91,8.78,3.91,1.74,0,3.49-.38,5.13-1.16,16.07-7.64,33.27-13.29,51.27-16.65,5.2-.97,9.16-5.21,9.7-10.48l5.17-51.03c.6-5.87,5.42-10.4,11.32-10.66,4.19-.19,8.4-.28,12.64-.28M740.64,608.21c75.09,0,135.95-60.87,135.95-135.95s-60.87-135.95-135.95-135.95-135.96,60.87-135.96,135.95,60.87,135.95,135.96,135.95M740.64,173.19c-4.5,0-9.05.1-13.53.3-7.63.34-14.9,3.41-20.45,8.64-5.59,5.26-9.09,12.36-9.87,19.99l-4.57,45.05c-15.36,3.29-30.36,8.16-44.72,14.52l-30.19-33.78c-6.03-6.75-14.69-10.62-23.75-10.62-6.28,0-12.37,1.83-17.61,5.3-7.49,4.95-14.86,10.31-21.89,15.93-5.96,4.76-10.03,11.51-11.45,19-1.43,7.53-.09,15.33,3.77,21.95l22.81,39.18c-10.49,11.71-19.76,24.45-27.65,38l-44.34-9.6c-2.21-.48-4.48-.72-6.74-.72-13.19,0-25.18,8.31-29.84,20.69-3.17,8.43-5.99,17.11-8.37,25.79-2.02,7.36-1.34,15.2,1.91,22.1,3.27,6.94,8.94,12.46,15.95,15.55l41.52,18.3c-.79,7.77-1.19,15.65-1.19,23.5s.4,15.72,1.19,23.5l-41.52,18.3c-7.02,3.09-12.68,8.62-15.95,15.55-3.25,6.89-3.93,14.74-1.91,22.1,2.38,8.68,5.2,17.36,8.37,25.79,4.66,12.37,16.65,20.69,29.84,20.69,2.26,0,4.53-.24,6.74-.72l44.34-9.6c7.88,13.55,17.15,26.29,27.65,38l-22.81,39.18c-3.86,6.62-5.2,14.42-3.77,21.95,1.42,7.49,5.48,14.24,11.45,19,7.03,5.62,14.4,10.98,21.89,15.93,5.24,3.47,11.34,5.3,17.61,5.3,9.06,0,17.72-3.87,23.75-10.62l30.19-33.78c14.36,6.36,29.36,11.23,44.72,14.52l4.57,45.05c.77,7.63,4.28,14.73,9.87,19.99,5.56,5.23,12.82,8.3,20.46,8.64,4.48.2,9.03.3,13.53.3s9.05-.1,13.53-.3c7.63-.34,14.9-3.41,20.45-8.64,5.59-5.26,9.09-12.36,9.87-19.99l4.56-45.05c15.36-3.29,30.36-8.16,44.72-14.52l30.19,33.77c6.03,6.75,14.69,10.62,23.76,10.62,6.28,0,12.36-1.83,17.61-5.3,7.5-4.96,14.87-10.32,21.9-15.94,5.96-4.76,10.02-11.51,11.44-19,1.43-7.53.09-15.33-3.77-21.95l-22.81-39.18c10.49-11.71,19.76-24.45,27.65-38l44.34,9.6c2.21.48,4.48.72,6.74.72,13.19,0,25.18-8.31,29.84-20.69,3.17-8.43,5.99-17.11,8.37-25.79,2.02-7.36,1.34-15.21-1.91-22.1-3.27-6.94-8.94-12.46-15.95-15.55l-41.52-18.3c.79-7.77,1.19-15.65,1.19-23.5s-.4-15.72-1.19-23.5l41.52-18.3c7.02-3.09,12.68-8.62,15.95-15.55,3.25-6.89,3.93-14.74,1.91-22.1-2.38-8.68-5.2-17.36-8.37-25.79-4.66-12.37-16.65-20.69-29.84-20.69-2.26,0-4.53.24-6.74.72l-44.34,9.6c-7.88-13.55-17.15-26.29-27.65-38l22.81-39.18c3.86-6.62,5.19-14.42,3.77-21.95-1.42-7.49-5.48-14.24-11.44-19-7.03-5.62-14.39-10.98-21.9-15.94-5.24-3.46-11.33-5.3-17.61-5.3-9.06,0-17.72,3.87-23.76,10.62l-30.19,33.77c-14.36-6.36-29.36-11.23-44.72-14.52l-4.56-45.05c-.77-7.63-4.28-14.73-9.87-19.99-5.56-5.23-12.82-8.3-20.46-8.64-4.48-.2-9.03-.3-13.53-.3h0v.04ZM740.64,588.21c-63.94,0-115.96-52.02-115.96-115.95s52.02-115.95,115.96-115.95,115.95,52.02,115.95,115.95-52.02,115.95-115.95,115.95h0Z"/>
  <path class="st2" d="M693.46,821.58c-15.35,6.2-31.4,10.85-47.75,13.57-.7.16-1.47.23-2.25.39-58.61,8.76-196.91-.54-253.5-19.38-77.6-25.97-226.83-79.62-290.02-136.98-10.39-9.38-18.45-18.92-23.49-28.45-.16-.31-.31-.62-.47-.93-11.94-21.55-53.72-70.31-15.43-150.63,36.36-76.21,154.12-132.33,198-122.56,15.5,3.41,41.17,14.03,69.85,26.9,14.73,6.59,30.31,13.72,45.66,20.85,39.69,18.3,78.14,36.05,98.53,41.48,32.09,8.61,79.46,14.65,125.05,22.02,16.75,2.71,33.18,5.58,48.61,8.84,18.37,3.88,35.2,8.3,48.99,13.49,50.47,19.23,124.04,152.72,116.91,196.29-6.74,41.17-56.9,90.31-118.69,115.12v-.02Z"/>
  <path class="st4" d="M376.69,464.74c-8.68,12.17-51.79,8.68-59.62-4.11-7.13-11.63,0-38.22,11.32-57.13,14.73,6.59,30.31,13.72,45.66,20.85-2.4,1.94-4.34,3.8-5.04,5.66-3.41,8.3,12.87,27.52,7.67,34.73h0Z"/>
  <path class="st0" d="M638.72,627.54c-19.54-7.36-70.31,20.23-72.79,40.93-1.78,14.81,29.77,44.42,44.11,40.31,8.53-2.4,7.75-27.6,15.5-32.02,6.43-3.64,24.89,2.25,29.46-3.57,7.52-9.54-4.88-41.4-16.28-45.66h0Z"/>
  <path class="st0" d="M155.98,507.61c10.93-8.68,44.03-22.56,54.19-13.02,8.68,8.14,1.16,39.38-8.06,46.82-13.8,11.01-59.69,27.99-69.31,13.18-7.13-11.01,12.95-38.84,23.18-46.98h0Z"/>
  <path class="st5" d="M693.46,821.58c-15.35,6.2-31.4,10.85-47.75,13.57-.7.16-1.47.23-2.25.39-10.85-9.07-31.01-38.14-23.88-50,6.12-10.16,38.3-9.46,47.44-1.94,7.98,6.28,20,22.79,26.44,37.99h0Z"/>
  <path class="st0" d="M482.2,533.19c-5.58-9.61-36.28,1.94-43.18,10.7-7.91,10-23.95,42.41-13.18,49.3,17.29,11.09,66.75-42.25,56.36-60Z"/>
  <path class="st4" d="M99.94,679.17c-10.39-9.38-18.45-18.92-23.49-28.45-.16-.31-.31-.62-.47-.93,1.63-2.64,3.1-4.96,4.42-6.59,6.9-8.76,37.6-20.23,43.18-10.7,5.89,10.23-7.67,31.94-23.64,46.67h0Z"/>
  <path class="st0" d="M368.94,684.75c.78-11.78-22.87-34.96-34.5-32.48-11.24,2.4-8.68,35.2-17.6,42.48-7.44,6.05-37.21-2.48-37.83,7.21-.85,13.26,37.44,19.23,50.55,16.59,12.64-2.56,38.53-20.85,39.38-33.8h0Z"/>
  <path class="st4" d="M657.33,556.29c-9.07,3.26-13.18-27.44-21.71-31.86-10.23-5.27-39.3,10.16-45.97.78-5.19-7.21.16-26.51,7.91-37.37,16.75,2.71,33.18,5.58,48.61,8.84,2.64,2.33,4.81,4.57,6.28,6.67,7.52,10.93,17.37,48.45,4.88,52.95h0Z"/>
  <path class="st1" d="M693.46,821.58c-15.35,6.2-31.4,10.85-47.75,13.57-.7.16-1.47.23-2.25.39-58.61,8.76-196.91-.54-253.5-19.38-77.6-25.97-226.83-79.62-290.02-136.98-10.39-9.38-18.45-18.92-23.49-28.45-.16-.31-.31-.62-.47-.93-11.94-21.55-53.72-70.31-15.43-150.63,36.36-76.21,154.12-132.33,198-122.56,15.5,3.41,41.17,14.03,69.85,26.9,14.73,6.59,30.31,13.72,45.66,20.85,39.69,18.3,78.14,36.05,98.53,41.48,32.09,8.61,79.46,14.65,125.05,22.02,16.75,2.71,33.18,5.58,48.61,8.84,18.37,3.88,35.2,8.3,48.99,13.49,50.47,19.23,124.04,152.72,116.91,196.29-6.74,41.17-56.9,90.31-118.69,115.12v-.02Z"/>
  <path class="st3" d="M3067.83,2403.66l-110.45,48.68c-8.31-35.27-12.7-72.06-12.7-109.87s4.39-74.6,12.7-109.87l110.45,48.68c-3.42,19.89-5.19,40.33-5.19,61.19s1.77,41.3,5.19,61.19h0Z"/>
  <path class="st3" d="M3110.86,1980.19l60.72,104.27c-29.27,28.49-53.72,61.92-71.98,98.95l-117.96-25.53c28.87-68.92,73.44-129.64,129.22-177.69Z"/>
  <path class="st3" d="M3171.58,2600.48l-60.72,104.27c-55.78-48.05-100.35-108.77-129.22-177.69l117.96-25.53c18.26,37.03,42.71,70.46,71.98,98.95Z"/>
  <path class="st3" d="M3371.19,2698.82l12.16,120.01c-76.09-6.18-147.14-30.2-208.96-67.85l80.4-89.95c35.68,18.84,74.9,31.85,116.4,37.79h0Z"/>
  <path class="st3" d="M3174.39,1933.96c61.82-37.65,132.87-61.67,208.96-67.85l-12.16,120.01c-41.5,5.94-80.72,18.95-116.4,37.79l-80.4-89.95h0Z"/>
  <path class="st3" d="M3590.49,2661.03l80.39,89.95c-61.82,37.66-132.87,61.67-208.95,67.85l12.16-120.01c41.5-5.94,80.72-18.95,116.4-37.79h0Z"/>
  <path class="st3" d="M3461.93,1866.11c76.08,6.18,147.13,30.19,208.95,67.85l-80.39,89.95c-35.68-18.84-74.9-31.85-116.4-37.79l-12.16-120.01h0Z"/>
  <path class="st3" d="M3745.68,2501.53l117.96,25.53c-28.87,68.92-73.44,129.65-129.23,177.69l-60.71-104.27c29.27-28.49,53.72-61.92,71.98-98.95Z"/>
  <path class="st3" d="M3673.7,2084.46l60.71-104.27c55.79,48.04,100.36,108.77,129.23,177.69l-117.96,25.53c-18.26-37.03-42.71-70.46-71.98-98.95Z"/>
  <path class="st3" d="M3900.6,2342.47c0,37.81-4.39,74.6-12.7,109.87l-110.45-48.68c3.42-19.89,5.19-40.33,5.19-61.19s-1.77-41.3-5.19-61.19l110.45-48.68c8.31,35.27,12.7,72.06,12.7,109.87h0Z"/>
</svg>