<?xml version="1.0" encoding="UTF-8"?>
<svg id="Layer_1" xmlns="http://www.w3.org/2000/svg" version="1.1" viewBox="0 0 1080 1080">
  <!-- Generator: Adobe Illustrator 29.6.0, SVG Export Plug-In . SVG Version: 2.1.1 Build 207)  -->
  <defs>
    <style>
      .st0 {
        stroke: #bf964b;
      }

      .st0, .st1, .st2, .st3, .st4 {
        stroke-miterlimit: 10;
      }

      .st0, .st5, .st4 {
        fill: #cca050;
        stroke-width: 10px;
      }

      .st1, .st2 {
        stroke-width: 20px;
      }

      .st1, .st2, .st5, .st4 {
        stroke: #b38c46;
      }

      .st1, .st3 {
        fill: none;
      }

      .st2 {
        fill: #e8b75b;
      }

      .st3 {
        stroke: gray;
        stroke-width: 30px;
      }

      .st5 {
        stroke-linecap: round;
        stroke-linejoin: bevel;
      }
    </style>
  </defs>
  <path class="st2" d="M887.89,821.7c-20.17,8.15-41.26,14.26-62.74,17.83-.92.21-1.93.3-2.96.51-77.01,11.51-258.73-.71-333.08-25.46-101.96-34.12-298.04-104.62-381.07-179.98-13.65-12.32-24.24-24.86-30.86-37.38-.21-.41-.41-.81-.62-1.22-15.69-28.32-70.58-92.38-20.27-197.92,47.77-100.13,202.5-173.87,260.16-161.04,20.37,4.48,54.09,18.43,91.78,35.34,19.35,8.66,39.83,18.03,59.99,27.4,52.15,24.04,102.67,47.37,129.46,54.5,42.16,11.31,104.4,19.25,164.31,28.93,22.01,3.56,43.6,7.33,63.87,11.62,24.14,5.1,46.25,10.91,64.37,17.72,66.31,25.27,162.98,200.66,153.61,257.91-8.86,54.09-74.76,118.66-155.95,151.26v-.03Z"/>
  <path class="st4" d="M471.68,352.84c-11.4,15.99-68.05,11.4-78.34-5.4-9.37-15.28,0-50.22,14.87-75.06,19.35,8.66,39.83,18.03,59.99,27.4-3.15,2.55-5.7,4.99-6.62,7.44-4.48,10.91,16.91,36.16,10.08,45.63h.01Z"/>
  <path class="st0" d="M815.97,566.75c-25.67-9.67-92.38,26.58-95.64,53.78-2.34,19.46,39.12,58.36,57.96,52.96,11.21-3.15,10.18-36.26,20.37-42.07,8.45-4.78,32.7,2.96,38.71-4.69,9.88-12.53-6.41-54.4-21.39-59.99h0Z"/>
  <path class="st0" d="M181.68,409.17c14.36-11.4,57.85-29.64,71.2-17.11,11.4,10.7,1.52,51.74-10.59,61.52-18.13,14.47-78.43,36.78-91.07,17.32-9.37-14.47,17.02-51.03,30.46-61.73h0Z"/>
  <path class="st5" d="M887.89,821.7c-20.17,8.15-41.26,14.26-62.74,17.83-.92.21-1.93.3-2.96.51-14.26-11.92-40.74-50.11-31.38-65.7,8.04-13.35,50.32-12.43,62.33-2.55,10.49,8.25,26.28,29.94,34.74,49.92h0Z"/>
  <path class="st0" d="M610.31,442.78c-7.33-12.63-47.67,2.55-56.74,14.06-10.39,13.14-31.47,55.72-17.32,64.78,22.72,14.57,87.7-55.51,74.05-78.84Z"/>
  <path class="st4" d="M108.05,634.59c-13.65-12.32-24.24-24.86-30.86-37.38-.21-.41-.41-.81-.62-1.22,2.14-3.47,4.07-6.52,5.81-8.66,9.07-11.51,49.4-26.58,56.74-14.06,7.74,13.44-10.08,41.97-31.06,61.32h0Z"/>
  <path class="st0" d="M461.5,641.92c1.02-15.48-30.05-45.94-45.33-42.68-14.77,3.15-11.4,46.25-23.13,55.82-9.78,7.95-48.89-3.26-49.71,9.47-1.12,17.42,49.19,25.27,66.42,21.8,16.61-3.36,50.63-27.4,51.74-44.41h0Z"/>
  <path class="st4" d="M840.42,473.13c-11.92,4.28-17.32-36.05-28.53-41.86-13.44-6.92-51.64,13.35-60.4,1.02-6.82-9.47.21-34.83,10.39-49.1,22.01,3.56,43.6,7.33,63.87,11.62,3.47,3.06,6.32,6,8.25,8.76,9.88,14.36,22.82,63.66,6.41,69.57h0Z"/>
  <path class="st1" d="M887.89,821.7c-20.17,8.15-41.26,14.26-62.74,17.83-.92.21-1.93.3-2.96.51-77.01,11.51-258.73-.71-333.08-25.46-101.96-34.12-298.04-104.62-381.07-179.98-13.65-12.32-24.24-24.86-30.86-37.38-.21-.41-.41-.81-.62-1.22-15.69-28.32-70.58-92.38-20.27-197.92,47.77-100.13,202.5-173.87,260.16-161.04,20.37,4.48,54.09,18.43,91.78,35.34,19.35,8.66,39.83,18.03,59.99,27.4,52.15,24.04,102.67,47.37,129.46,54.5,42.16,11.31,104.4,19.25,164.31,28.93,22.01,3.56,43.6,7.33,63.87,11.62,24.14,5.1,46.25,10.91,64.37,17.72,66.31,25.27,162.98,200.66,153.61,257.91-8.86,54.09-74.76,118.66-155.95,151.26v-.03Z"/>
  <path class="st3" d="M3067.83,2403.66l-110.45,48.68c-8.31-35.27-12.7-72.06-12.7-109.87s4.39-74.6,12.7-109.87l110.45,48.68c-3.42,19.89-5.19,40.33-5.19,61.19s1.77,41.3,5.19,61.19h0Z"/>
  <path class="st3" d="M3110.86,1980.19l60.72,104.27c-29.27,28.49-53.72,61.92-71.98,98.95l-117.96-25.53c28.87-68.92,73.44-129.64,129.22-177.69Z"/>
  <path class="st3" d="M3171.58,2600.48l-60.72,104.27c-55.78-48.05-100.35-108.77-129.22-177.69l117.96-25.53c18.26,37.03,42.71,70.46,71.98,98.95Z"/>
  <path class="st3" d="M3371.19,2698.82l12.16,120.01c-76.09-6.18-147.14-30.2-208.96-67.85l80.4-89.95c35.68,18.84,74.9,31.85,116.4,37.79h0Z"/>
  <path class="st3" d="M3174.39,1933.96c61.82-37.65,132.87-61.67,208.96-67.85l-12.16,120.01c-41.5,5.94-80.72,18.95-116.4,37.79l-80.4-89.95h0Z"/>
  <path class="st3" d="M3590.49,2661.03l80.39,89.95c-61.82,37.66-132.87,61.67-208.95,67.85l12.16-120.01c41.5-5.94,80.72-18.95,116.4-37.79h0Z"/>
  <path class="st3" d="M3461.93,1866.11c76.08,6.18,147.13,30.19,208.95,67.85l-80.39,89.95c-35.68-18.84-74.9-31.85-116.4-37.79l-12.16-120.01h0Z"/>
  <path class="st3" d="M3745.68,2501.53l117.96,25.53c-28.87,68.92-73.44,129.65-129.23,177.69l-60.71-104.27c29.27-28.49,53.72-61.92,71.98-98.95Z"/>
  <path class="st3" d="M3673.7,2084.46l60.71-104.27c55.79,48.04,100.36,108.77,129.23,177.69l-117.96,25.53c-18.26-37.03-42.71-70.46-71.98-98.95Z"/>
  <path class="st3" d="M3900.6,2342.47c0,37.81-4.39,74.6-12.7,109.87l-110.45-48.68c3.42-19.89,5.19-40.33,5.19-61.19s-1.77-41.3-5.19-61.19l110.45-48.68c8.31,35.27,12.7,72.06,12.7,109.87h0Z"/>
</svg>